#!OML:ASF X:\für Bonn\!DataBase\2005_08_11_Bastian_Final\c3d\Bastian.ASF
:FULLY-SPECIFIED
:DEGREES
680
root 1.39724 1.20913 25.3523 -806.32 -176.167 -717.937
lowerback -3.86093 -1.96715 -3.36097
upperback 3.13175 -2.45181 0.0352221
thorax 5.56107 -1.35979 1.70366
lowerneck -30.7252 -0.140752 -0.0539501
upperneck 12.4724 0.0114478 -0.315458
head 8.77911 0.0263826 -0.0910076
rclavicle 8.34896e-015 4.96962e-016
rhumerus -63.7816 54.9844 -110.162
rradius 24.5959
rwrist -12.6783
rhand -14.2823 -8.16655
rfingers 7.12502
rthumb 11.8569 -37.8108
lclavicle 8.34896e-015 4.96962e-016
lhumerus -46.1334 -44.2994 93.3084
lradius 17.7712
lwrist 23.4293
lhand -8.28379 -3.18634
lfingers 7.12502
lthumb 17.6358 26.0338
rfemur -15.85 9.21442 17.5579
rtibia 33.6264
rfoot -12.4008 -25.9847
rtoes 5.38231
lfemur -8.67395 4.55669 -21.7355
ltibia 17.0048
lfoot 2.33007 3.38984
ltoes -25.2814
681
root 1.39659 1.20874 25.3524 -806.308 -176.169 -717.947
lowerback -3.87569 -1.94743 -3.33235
upperback 3.12346 -2.4255 0.0186311
thorax 5.55716 -1.34491 1.67255
lowerneck -30.66 -0.154058 -0.0329263
upperneck 12.4144 -0.0114764 -0.330641
head 8.74876 0.0153177 -0.103129
rclavicle 3.22031e-014 -3.67752e-015
rhumerus -63.7038 54.8927 -110.087
rradius 24.5694
rwrist -12.6269
rhand -14.2802 -8.15207
rfingers 7.12502
rthumb 11.8589 -37.7963
lclavicle 3.22031e-014 -3.67752e-015
lhumerus -46.1525 -44.3593 93.3255
lradius 17.7617
lwrist 23.4348
lhand -8.28205 -3.1917
lfingers 7.12502
lthumb 17.6374 26.0283
rfemur -15.8735 9.25831 17.5548
rtibia 33.6355
rfoot -12.4038 -26.0017
rtoes 5.4118
lfemur -8.68605 4.55524 -21.7365
ltibia 17.0031
lfoot 2.31735 3.41578
ltoes -25.1704
682
root 1.39643 1.20893 25.3526 -806.284 -176.169 -717.948
lowerback -3.92317 -1.94429 -3.31922
upperback 3.13471 -2.41961 0.00884542
thorax 5.59476 -1.34183 1.65369
lowerneck -30.6588 -0.145516 -0.0114662
upperneck 12.3912 -0.00669358 -0.337321
head 8.7404 0.0182931 -0.108031
rclavicle 4.49253e-014 -1.00386e-014
rhumerus -63.6567 54.8754 -110.04
rradius 24.5802
rwrist -12.6038
rhand -14.2839 -8.16424
rfingers 7.12502
rthumb 11.8553 -37.8086
lclavicle 4.49253e-014 -1.00386e-014
lhumerus -46.1626 -44.4396 93.3548
lradius 17.7696
lwrist 23.5099
lhand -8.29029 -3.18406
lfingers 7.12502
lthumb 17.6295 26.0367
rfemur -15.9027 9.25506 17.5483
rtibia 33.6411
rfoot -12.443 -25.9599
rtoes 5.59732
lfemur -8.717 4.58153 -21.7461
ltibia 17.0103
lfoot 2.33356 3.37338
ltoes -25.2964
683
root 1.39586 1.2083 25.3521 -806.252 -176.164 -717.949
lowerback -3.96402 -1.94593 -3.31758
upperback 3.13745 -2.4201 0.0082334
thorax 5.62095 -1.34223 1.65061
lowerneck -30.6536 -0.128321 0.0192615
upperneck 12.3444 0.0141928 -0.381669
head 8.72318 0.0250883 -0.125034
rclavicle 8.74653e-015 1.88845e-015
rhumerus -63.6783 54.9094 -110.07
rradius 24.5875
rwrist -12.6143
rhand -14.3032 -8.16578
rfingers 7.12502
rthumb 11.8367 -37.8112
lclavicle 8.74653e-015 1.88845e-015
lhumerus -46.1274 -44.4126 93.3114
lradius 17.775
lwrist 23.4787
lhand -8.28885 -3.18978
lfingers 7.12502
lthumb 17.6309 26.0308
rfemur -15.9515 9.2028 17.54
rtibia 33.6495
rfoot -12.365 -25.9239
rtoes 5.62601
lfemur -8.75973 4.56439 -21.7559
ltibia 17.0177
lfoot 2.32941 3.39135
ltoes -25.2768
684
root 1.39581 1.20824 25.3521 -806.24 -176.164 -717.95
lowerback -3.98099 -1.94444 -3.32381
upperback 3.13232 -2.41729 0.01549
thorax 5.62574 -1.34113 1.66142
lowerneck -30.5891 -0.118823 0.0410023
upperneck 12.2842 0.0280609 -0.428352
head 8.69232 0.0275201 -0.14254
rclavicle -3.57812e-015 -1.13307e-014
rhumerus -63.6832 54.9039 -110.058
rradius 24.5867
rwrist -12.61
rhand -14.3029 -8.16374
rfingers 7.12502
rthumb 11.837 -37.8092
lclavicle -3.57812e-015 -1.13307e-014
lhumerus -46.1182 -44.3974 93.3152
lradius 17.7636
lwrist 23.4596
lhand -8.29836 -3.18939
lfingers 7.12502
lthumb 17.6217 26.032
rfemur -15.9689 9.18312 17.5372
rtibia 33.6565
rfoot -12.3568 -25.8743
rtoes 5.68862
lfemur -8.77669 4.56466 -21.7574
ltibia 17.0255
lfoot 2.33038 3.37622
ltoes -25.2255
685
root 1.39584 1.20764 25.3525 -806.205 -176.187 -717.951
lowerback -4.03555 -1.92708 -3.28041
upperback 3.14358 -2.39411 0.00497474
thorax 5.66499 -1.32829 1.62628
lowerneck -30.6171 -0.132111 0.0549936
upperneck 12.2775 0.00480588 -0.425429
head 8.69411 0.0181315 -0.147288
rclavicle -5.56597e-015 -3.77691e-015
rhumerus -63.5713 54.8372 -109.961
rradius 24.5832
rwrist -12.5824
rhand -14.3062 -8.16264
rfingers 7.12502
rthumb 11.8338 -37.8083
lclavicle -5.56597e-015 -3.77691e-015
lhumerus -46.0753 -44.4795 93.2964
lradius 17.7485
lwrist 23.4833
lhand -8.29654 -3.19452
lfingers 7.12502
lthumb 17.6235 26.0268
rfemur -16.0163 9.17922 17.5557
rtibia 33.6658
rfoot -12.3513 -25.8394
rtoes 5.75507
lfemur -8.82041 4.56641 -21.7355
ltibia 17.0274
lfoot 2.31358 3.3915
ltoes -25.1117
686
root 1.39577 1.2076 25.3525 -806.193 -176.187 -717.951
lowerback -4.04176 -1.92336 -3.26952
upperback 3.13021 -2.38888 -0.00297216
thorax 5.65331 -1.32454 1.61254
lowerneck -30.5638 -0.121662 0.0931216
upperneck 12.2383 0.0127111 -0.471461
head 8.67235 0.0184213 -0.168113
rclavicle 1.19271e-015 -6.36111e-015
rhumerus -63.564 54.7984 -109.954
rradius 24.5729
rwrist -12.5581
rhand -14.3054 -8.15657
rfingers 7.12502
rthumb 11.8346 -37.8022
lclavicle 1.19271e-015 -6.36111e-015
lhumerus -46.0646 -44.4232 93.2544
lradius 17.7435
lwrist 23.4014
lhand -8.29531 -3.20042
lfingers 7.12502
lthumb 17.6247 26.0208
rfemur -16.0338 9.21578 17.5578
rtibia 33.6651
rfoot -12.3128 -25.8799
rtoes 5.59788
lfemur -8.84384 4.56667 -21.737
ltibia 17.0489
lfoot 2.30547 3.36992
ltoes -25.0913
687
root 1.3953 1.20668 25.3527 -806.171 -176.164 -717.963
lowerback -4.07656 -1.91883 -3.28015
upperback 3.13791 -2.3799 -0.0159478
thorax 5.68076 -1.32057 1.60449
lowerneck -30.5255 -0.118769 0.107887
upperneck 12.1743 0.0148654 -0.486656
head 8.64406 0.019167 -0.175233
rclavicle -1.35174e-014 -7.85199e-015
rhumerus -63.5351 54.8023 -109.933
rradius 24.5797
rwrist -12.5663
rhand -14.3055 -8.15717
rfingers 7.12502
rthumb 11.8345 -37.8028
lclavicle -1.35174e-014 -7.85199e-015
lhumerus -46.0638 -44.4726 93.2707
lradius 17.7318
lwrist 23.4044
lhand -8.35214 -3.22722
lfingers 7.12502
lthumb 17.57 25.9989
rfemur -16.0665 9.1981 17.525
rtibia 33.6662
rfoot -12.3104 -25.8294
rtoes 5.84011
lfemur -8.88053 4.56289 -21.7666
ltibia 17.0698
lfoot 2.2989 3.367
ltoes -25.039
688
root 1.39506 1.20645 25.3522 -806.138 -176.188 -717.961
lowerback -4.10751 -1.91102 -3.23971
upperback 3.12676 -2.37084 -0.0132686
thorax 5.68449 -1.31423 1.58474
lowerneck -30.5019 -0.120016 0.119488
upperneck 12.1467 0.0122146 -0.503288
head 8.63082 0.0167967 -0.183215
rclavicle -7.95139e-015 1.98785e-016
rhumerus -63.4994 54.7632 -109.891
rradius 24.5686
rwrist -12.5447
rhand -14.3045 -8.15045
rfingers 7.12502
rthumb 11.8355 -37.796
lclavicle -7.95139e-015 1.98785e-016
lhumerus -46.0599 -44.4919 93.2768
lradius 17.7205
lwrist 23.3978
lhand -8.35053 -3.2325
lfingers 7.12502
lthumb 17.5715 25.9934
rfemur -16.1041 9.16823 17.545
rtibia 33.6658
rfoot -12.302 -25.7668
rtoes 5.87116
lfemur -8.92661 4.56366 -21.7432
ltibia 17.0867
lfoot 2.29595 3.36376
ltoes -25.0612
689
root 1.39483 1.20657 25.3523 -806.127 -176.187 -717.971
lowerback -4.13117 -1.89618 -3.23526
upperback 3.13269 -2.34983 -0.0220937
thorax 5.70252 -1.30372 1.57415
lowerneck -30.4837 -0.125847 0.13668
upperneck 12.1111 0.000499274 -0.514753
head 8.61551 0.0112971 -0.191632
rclavicle 2.78299e-015 -1.32192e-014
rhumerus -63.3629 54.6731 -109.753
rradius 24.5373
rwrist -12.4633
rhand -14.3017 -8.12919
rfingers 7.12502
rthumb 11.8381 -37.7746
lclavicle 2.78299e-015 -1.32192e-014
lhumerus -46.034 -44.5062 93.2474
lradius 17.7186
lwrist 23.368
lhand -8.36011 -3.23256
lfingers 7.12502
lthumb 17.5623 25.9942
rfemur -16.1202 9.11557 17.5446
rtibia 33.6653
rfoot -12.2262 -25.7193
rtoes 5.70442
lfemur -8.94403 4.53161 -21.7524
ltibia 17.1069
lfoot 2.26696 3.41462
ltoes -25.1103
690
root 1.39502 1.20542 25.3525 -806.103 -176.185 -717.974
lowerback -4.15349 -1.89318 -3.23115
upperback 3.13435 -2.34476 -0.0282963
thorax 5.71632 -1.30101 1.56511
lowerneck -30.4692 -0.11047 0.188676
upperneck 12.0694 0.0122798 -0.570651
head 8.59876 0.0133886 -0.217412
rclavicle 9.54166e-015 1.59028e-014
rhumerus -63.3864 54.6901 -109.795
rradius 24.5471
rwrist -12.4658
rhand -14.3026 -8.17045
rfingers 7.12502
rthumb 11.8373 -37.8159
lclavicle 9.54166e-015 1.59028e-014
lhumerus -46.0071 -44.5248 93.2297
lradius 17.7068
lwrist 23.3664
lhand -8.36631 -3.23606
lfingers 7.12502
lthumb 17.5564 25.9912
rfemur -16.1464 9.20144 17.5386
rtibia 33.661
rfoot -12.2651 -25.7584
rtoes 5.83288
lfemur -8.98807 4.52991 -21.7566
ltibia 17.1328
lfoot 2.26401 3.40161
ltoes -25.0583
691
root 1.39499 1.20542 25.3528 -806.069 -176.208 -717.973
lowerback -4.19061 -1.88828 -3.204
upperback 3.12765 -2.33899 -0.0182106
thorax 5.72942 -1.29721 1.55987
lowerneck -30.4459 -0.123171 0.163912
upperneck 12.0397 0.00386766 -0.561328
head 8.58482 0.00962853 -0.211455
rclavicle -1.19271e-015 -1.72943e-014
rhumerus -63.349 54.6732 -109.753
rradius 24.533
rwrist -12.4532
rhand -14.3015 -8.16528
rfingers 7.12502
rthumb 11.8384 -37.8106
lclavicle -1.19271e-015 -1.72943e-014
lhumerus -46.051 -44.5944 93.2984
lradius 17.7215
lwrist 23.4376
lhand -8.35784 -3.25354
lfingers 7.12502
lthumb 17.5645 25.973
rfemur -16.1909 9.21121 17.557
rtibia 33.662
rfoot -12.2673 -25.7633
rtoes 6.04614
lfemur -9.03144 4.52444 -21.734
ltibia 17.1443
lfoot 2.25837 3.40181
ltoes -25.169
692
root 1.39429 1.20408 25.353 -806.058 -176.209 -717.974
lowerback -4.18407 -1.88474 -3.18457
upperback 3.1187 -2.33527 -0.0258225
thorax 5.71482 -1.29404 1.54189
lowerneck -30.4175 -0.111178 0.198025
upperneck 12.0096 0.0138502 -0.598045
head 8.57002 0.0119241 -0.228026
rclavicle 1.51076e-014 -1.50082e-014
rhumerus -63.2941 54.6177 -109.697
rradius 24.5212
rwrist -12.409
rhand -14.3076 -8.17159
rfingers 7.12502
rthumb 11.8325 -37.8173
lclavicle 1.51076e-014 -1.50082e-014
lhumerus -46.0367 -44.5558 93.2698
lradius 17.7212
lwrist 23.3714
lhand -8.37811 -3.23444
lfingers 7.12502
lthumb 17.545 25.9939
rfemur -16.2114 9.1838 17.5527
rtibia 33.6626
rfoot -12.2445 -25.7096
rtoes 6.10155
lfemur -9.05348 4.50713 -21.7364
ltibia 17.1541
lfoot 2.2568 3.40476
ltoes -25.1382
693
root 1.39367 1.20376 25.3533 -806.034 -176.209 -717.975
lowerback -4.21002 -1.87319 -3.15855
upperback 3.10457 -2.31891 -0.0480759
thorax 5.71177 -1.28385 1.50527
lowerneck -30.3591 -0.102507 0.262935
upperneck 11.9817 0.00799546 -0.643113
head 8.55148 0.00702076 -0.254816
rclavicle -2.62396e-014 -1.27222e-014
rhumerus -63.2344 54.5325 -109.655
rradius 24.4966
rwrist -12.3606
rhand -14.3059 -8.15921
rfingers 7.12502
rthumb 11.8341 -37.8048
lclavicle -2.62396e-014 -1.27222e-014
lhumerus -46.0636 -44.6063 93.2734
lradius 17.707
lwrist 23.3233
lhand -8.39026 -3.24084
lfingers 7.12502
lthumb 17.5333 25.9885
rfemur -16.2474 9.11599 17.5495
rtibia 33.6675
rfoot -12.1693 -25.6348
rtoes 5.94023
lfemur -9.08495 4.4942 -21.7419
ltibia 17.1603
lfoot 2.254 3.41814
ltoes -25.1374
